<svg xmlns="http://www.w3.org/2000/svg" width="160" height="72" viewBox="0 0 150.00001 67.5"><path d="M51.365 0a33.552 33.552 0 0 0-3.646.189c-4.5.467-7.67 1.794-9.525 3.98C41.738 1.815 45.713.637 50.138.637c4.706 0 8.924 1.327 12.636 3.98l1.051.805c.75.598 1.481 1.25 2.194 1.98a17.155 17.155 0 0 0-2.87 4.54 17.899 17.899 0 0 0-1.18 4 18.998 18.998 0 0 0-.244 3.138c0 1.083.075 2.13.243 3.158.544 3.27 1.988 6.203 4.294 8.8-7.894 4.055-14.287 10.221-19.143 18.536-5.7-7.25-12.188-12.146-19.444-14.669l30.787-.073v-2.056l-42.955.15c-5.006-.019-10.013.71-15.038 2.223l.6 1.981c5.1-1.513 8.962-2.242 11.606-2.204l4.912.054 2.644.262c10.107 1.402 18.825 7.007 26.175 16.817l.995 1.346.769-1.476c9.43-17.041 25.142-25.244 47.155-24.59l48.545 21.003c-2.232 3.158-2.438 6.053-.62 8.706-.843-4.596.731-7.082 4.725-7.474 1.106-.243 1.276-.691.507-1.364l-48.151-20.927v-4.054h.414v.018l4.724-.018.075.036c.506.318.768.935.787 1.831v.132h.487v-4.803h-.487v.15c-.019.879-.281 1.495-.787 1.832l-.075.036-4.724-.018v.018h-.414V16.39l6.6-.019.076.037c.506.337.768.953.787 1.831v.15h.487l-.018-2.746h-5.176v.018H98.68a17.062 17.062 0 0 0-1.725-5.008l2.776-4.39c.881-1.402 2.83-2.823 5.83-4.262H92.043c1.276.916 1.538 2.074.77 3.476-3.507-3.12-7.651-4.671-12.47-4.671-3.412 0-6.488.785-9.225 2.354a19.587 19.587 0 0 0-3.26 2.373 31.478 31.478 0 0 0-4.033-2.523l-1.051-.503a14 14 0 0 0-1.443-.636C58.251.638 54.93.014 51.365 0zm26.601 3.523c.362-.001.73.008 1.103.03 4.312.242 8.1 1.888 11.363 4.97L79.576 22.2c-1.67-4.915-4.107-9.118-7.295-12.613l-3.206-3.063c.656-.523 1.33-.972 2.043-1.346 2.034-1.095 4.313-1.647 6.848-1.655zm-10.935 4.98c.788.879 1.501 1.776 2.157 2.729l.487.71c2.794 4.354 4.2 9.38 4.2 15.042v.934a48.352 48.352 0 0 0-5.005 1.868c-3.132-3.214-4.82-6.95-5.083-11.192-.132-2.447.225-4.671 1.069-6.652a13.012 13.012 0 0 1 2.175-3.439zM94.65 14.26c.881 1.906 1.37 3.943 1.502 6.129.112 1.775-.038 3.419-.45 4.951l-.133-.038a81.748 81.748 0 0 0-8.044.131L94.65 14.26zM8.231 15.643c-2.27-.019-4.2.709-5.83 2.223C.807 19.379 0 21.192 0 23.304c0 2.111.807 3.905 2.4 5.418 1.632 1.513 3.562 2.261 5.83 2.261h.114c1.931-.037 3.562-.785 4.931-2.261a9.223 9.223 0 0 0 1.106-1.476l-.243-.243-.863.99c-1.219 1.215-2.663 1.888-4.369 2l-.525.018c-1.575 0-2.906-.673-4.012-2.018-1.106-1.327-1.65-2.952-1.65-4.84 0-1.887.544-3.493 1.65-4.857 1.106-1.327 2.457-2 4.032-2 1.556 0 2.905.673 4.012 2a7.224 7.224 0 0 1 1.217 2.148l.526.038-.487-4.821h-.207c-.244.56-.674.858-1.293.877-1.181-.598-2.495-.895-3.938-.895zm11.757 0l-.562 1.12h-.02l-6.113 13.004.039.019c-.412.261-.901.43-1.445.487v.448h4.988v-.448c-1.35-.168-1.969-.56-1.875-1.214l1.593-3.384h6.264l1.368 2.878c.169.953-.375 1.533-1.632 1.702v.466h6.188v-.466h-.037c-.6-.131-1.106-.356-1.5-.693l-6.676-13.92h-.58zm123.75 0v.018h-7.068v.449h.148c.9.018 1.52.279 1.857.765l.038.075v12.296l-.038.073c-.337.486-.957.748-1.857.767h-.148v.485l3.655-.018v.018h8.569l1.106-3.4h-.469l-.057.187c-.393 1.083-.898 1.83-1.517 2.241l-.094.057-1.126.168-5.775-.018v-6.577h.432v.018l4.724-.018.057.036c.506.318.769.935.787 1.831v.132h.487v-4.803h-.487v.15c-.018.879-.28 1.495-.787 1.832l-.057.036-4.724-.018v.018h-.432V16.39l6.62-.019.056.037c.506.337.769.953.787 1.831v.15h.487l-.018-2.746h-5.156zm-34.913.018v.449h.15c.9.018 1.52.279 1.857.765l.037.075v11.995l-.019.094h-.018c-.3.654-.787 1.01-1.481 1.047h-.264v.467h6.376v-.467l-1.332-.205c-.6-.206-.917-.561-.974-1.084v-3.794h-.038v-1.476l1.424.355 5.102 6.671h2.549v.018l8.906-.018c1.819-.093 3.393-.822 4.706-2.186l.375-.43c1.163-1.365 1.743-2.99 1.743-4.84 0-1.85-.58-3.475-1.743-4.84l-.375-.428c-1.313-1.364-2.887-2.093-4.706-2.168h-8.906v.449h.15c.918.018 1.538.279 1.856.765l.057.075v12.296l-.057.073c-.318.486-.938.748-1.856.767h-.713l-4.555-6.167a5.484 5.484 0 0 0 2.323-1.12c.432-.355.75-.748.995-1.178a3.445 3.445 0 0 0 .468-1.774c0-1.177-.488-2.168-1.463-2.99-.975-.804-2.155-1.215-3.543-1.196h-7.03zm-80.12.15v.467h.132c1.407.037 2.139.653 2.157 1.85v9.827c-.13 1.476-.73 2.243-1.8 2.3h-.225v.448h5.55v-.448c-1.706-.094-2.568-.58-2.606-1.44v-10.37l6.244 12.276.392-.038 6.207-12.5v10.782c-.056.523-.394.877-.994 1.083l-1.331.207v.448h6.376v-.448h-.225c-.713-.038-1.22-.394-1.5-1.048l-.057-.093V17.119l.057-.076c.318-.485.936-.746 1.855-.765h.15v-.467h-4.442l-5.682 11.472-5.757-11.472h-4.5zm20.439 0v.467h.15c.9.019 1.519.28 1.857.765l.036.076v11.995l-.018.093h-.018c-.282.654-.788 1.01-1.482 1.048h-.262v.448h6.374v-.448l-1.33-.207c-.6-.206-.92-.56-.977-1.083v-3.793h-.018v-1.476l.976.241 1.761.244c1.37 0 2.551-.41 3.527-1.232.974-.804 1.461-1.795 1.461-2.954 0-1.158-.487-2.147-1.461-2.97-.976-.822-2.158-1.233-3.527-1.214h-7.05zm77.362.579l4.594.168c.937.318 1.78.877 2.512 1.7 1.2 1.345 1.801 2.97 1.82 4.857-.019 1.887-.62 3.513-1.82 4.84-.731.822-1.575 1.383-2.512 1.7l-4.594.17V16.39zm-12 .111c.995-.018 1.857.299 2.57.953.713.653 1.067 1.459 1.067 2.393 0 .654-.187 1.25-.544 1.774-.15.205-.317.41-.523.579-.713.654-1.575.99-2.57 1.009a4.69 4.69 0 0 1-1.387-.26v-6.222a3.388 3.388 0 0 1 1.388-.226zm-59.68.15a3.585 3.585 0 0 1 2.568.971c.713.654 1.068 1.458 1.068 2.373 0 .934-.355 1.719-1.068 2.373-.712.654-1.575.972-2.569.99a4.462 4.462 0 0 1-1.37-.243v-6.24l1.37-.223zM19.687 19.08l2.775 5.811h-5.495l2.72-5.811zm78.394 5.773v1.46l-.47-.208.47-1.252zM108.9 27.17l-.057.187c-.393 1.083-.898 1.83-1.536 2.241l-.075.057c-.338.13-.675.187-.994.168l1.706.747h.319l1.106-3.4h-.469zm38.831 5.25c-.58 0-1.106.205-1.538.635-.393.411-.599.916-.599 1.533 0 .579.206 1.083.6 1.475.43.412.956.635 1.537.654.582-.019 1.087-.242 1.518-.654.413-.392.621-.896.621-1.475 0-.617-.208-1.122-.62-1.533a2.071 2.071 0 0 0-1.519-.635zm0 .355c.507 0 .938.169 1.256.505.357.355.544.766.544 1.271 0 .505-.187.934-.544 1.27-.318.356-.75.523-1.256.523s-.918-.167-1.274-.522c-.338-.337-.507-.766-.507-1.271 0-.505.17-.916.507-1.27a1.772 1.772 0 0 1 1.274-.506zm-.207.599l-.673.018v2.391h.448v-1.009l.246.037.637.972h.505l-.694-1.065.319-.26.113-.376c0-.467-.3-.708-.9-.708zm-.093.373l.394.094c.093.037.15.11.168.241l-.13.282-.414.073h-.15v-.653l.132-.037zm-57.134 3.814c-16.453-.205-28.899 8.582-37.31 26.362-3.094 1.943-6.3 1.963-9.637.038C35.775 44.324 21.412 38.138.262 45.406l.694 1.925c19.95-6.839 33.468-.952 40.556 17.677l.432.503c4.331 2.654 8.474 2.654 12.45-.018l.375-.428c8.793-18.779 22.237-27.17 40.33-25.152l52.464 23.694.862-1.87L95.832 37.99l-.3-.075a49.282 49.282 0 0 0-5.235-.352zm-4.182 10.521a30.168 30.168 0 0 0-5.153.594c-4.669.915-8.85 2.953-12.506 6.148-3.656 3.177-6.112 7.156-7.35 11.92h6.15c2.888-7.081 7.556-11.583 14.006-13.47 6.806-2.019 14.908-.917 24.339 3.325-3.244-3.719-6.994-6.204-11.25-7.456a26.633 26.633 0 0 0-8.236-1.06zm7.712 8.495a15.22 15.22 0 0 0-.883.022c-2.418.112-4.706.597-6.862 1.476-2.156.859-4.22 2.092-6.226 3.68-2.006 1.607-3.15 3.289-3.393 5.026h5.98c2.719-5.624 8.12-8.594 16.201-8.912-1.214-.85-2.815-1.284-4.817-1.292z" fill="#fff"/></svg>